<svg xmlns="http://www.w3.org/2000/svg" width="200" height="54" viewBox="0 0 200 54">
  <path id="Path_1580" data-name="Path 1580" d="M19.6-110.1A13.53,13.53,0,0,0,6-96.6,13.53,13.53,0,0,0,19.6-83.1a13.808,13.808,0,0,0,8.515-2.949V-83.1h5.083V-96.6A13.53,13.53,0,0,0,19.6-110.1Zm0,21.954A8.505,8.505,0,0,1,11.083-96.6a8.505,8.505,0,0,1,8.515-8.454A8.505,8.505,0,0,1,28.112-96.6,8.505,8.505,0,0,1,19.6-88.146ZM43.558-96.6a8.505,8.505,0,0,1,8.515-8.454A8.505,8.505,0,0,1,60.587-96.6v13.5H65.67V-96.6a13.53,13.53,0,0,0-13.6-13.5,13.53,13.53,0,0,0-13.6,13.5v13.5h5.083Zm49.5,13.5a8.45,8.45,0,0,1-8.515,8.388,8.6,8.6,0,0,1-7.789-5.046H71.413A13.571,13.571,0,0,0,84.548-69.6a13.572,13.572,0,0,0,13.6-13.5V-96.6a13.53,13.53,0,0,0-13.6-13.5,13.572,13.572,0,0,0-13.6,13.5,13.614,13.614,0,0,0,13.6,13.5,13.34,13.34,0,0,0,8.515-3.015V-83.1Zm-8.515-5.112A8.393,8.393,0,0,1,76.1-96.6a8.449,8.449,0,0,1,8.449-8.454A8.505,8.505,0,0,1,93.063-96.6,8.45,8.45,0,0,1,84.548-88.212ZM117.023-110.1a13.572,13.572,0,0,0-13.6,13.5v27h5.083V-86.049a13.667,13.667,0,0,0,8.515,2.949,13.53,13.53,0,0,0,13.6-13.5A13.572,13.572,0,0,0,117.023-110.1Zm0,21.954a8.505,8.505,0,0,1-8.515-8.454,8.45,8.45,0,0,1,8.515-8.388,8.45,8.45,0,0,1,8.515,8.388A8.505,8.505,0,0,1,117.023-88.146ZM135.9-83.1h5.149v-40.5H135.9Zm24.026-27a13.53,13.53,0,0,0-13.6,13.5,13.572,13.572,0,0,0,13.6,13.5,13.572,13.572,0,0,0,13.6-13.5A13.53,13.53,0,0,0,159.927-110.1Zm0,21.888a8.45,8.45,0,0,1-8.515-8.388,8.505,8.505,0,0,1,8.515-8.454,8.505,8.505,0,0,1,8.515,8.454A8.45,8.45,0,0,1,159.927-88.212ZM192.4-110.1a13.572,13.572,0,0,0-13.6,13.5v27h5.083V-86.049A13.667,13.667,0,0,0,192.4-83.1,13.53,13.53,0,0,0,206-96.6,13.572,13.572,0,0,0,192.4-110.1Zm0,21.954a8.505,8.505,0,0,1-8.515-8.454,8.45,8.45,0,0,1,8.515-8.388,8.45,8.45,0,0,1,8.515,8.388A8.505,8.505,0,0,1,192.4-88.146Z" transform="translate(-6 123.6)" fill="#fff"/>
</svg>
