<svg xmlns="http://www.w3.org/2000/svg" width="24" height="24" viewBox="0 0 24 24">
  <g id="Group_8880" data-name="Group 8880" transform="translate(-259 -439)">
    <rect id="Rectangle_5188" data-name="Rectangle 5188" width="24" height="24" transform="translate(259 439)" fill="#fff" opacity="0"/>
    <g id="Arrow_-_Right_3" data-name="Arrow - Right 3" transform="translate(261.948 456.394) rotate(-90)">
      <path id="Stroke_1" data-name="Stroke 1" d="M.75,10.45A.75.75,0,0,1,0,9.7V.75a.75.75,0,0,1,1.5,0V9.7A.75.75,0,0,1,.75,10.45Z" transform="translate(4.644 0)" fill="#7d85d5"/>
      <path id="Stroke_3" data-name="Stroke 3" d="M5.4,9.154c-.288,0-1.052,0-2.8-2.336A19.272,19.272,0,0,1,.357,3.041C.044,2.288-.242,1.351.32.788.548.56.968.306,2.362.144A26.581,26.581,0,0,1,5.284,0,28.868,28.868,0,0,1,8.361.15c1.466.164,1.885.4,2.118.637.534.534.276,1.4-.046,2.179a20.419,20.419,0,0,1-2.226,3.8C6.457,9.154,5.689,9.154,5.4,9.154ZM1.52,1.813a11.5,11.5,0,0,0,1.572,3.1A10.282,10.282,0,0,0,5.4,7.628a10,10,0,0,0,2.284-2.74A12.708,12.708,0,0,0,9.252,1.816,18.708,18.708,0,0,0,5.284,1.5,16.339,16.339,0,0,0,1.52,1.813Z" transform="translate(0 8.95)" fill="#7d85d5"/>
    </g>
  </g>
</svg>
