<svg id="Group_8885" data-name="Group 8885" xmlns="http://www.w3.org/2000/svg" width="24" height="24" viewBox="0 0 24 24">
  <rect id="Rectangle_5188" data-name="Rectangle 5188" width="24" height="24" fill="#fff" opacity="0"/>
  <g id="Arrow_-_Right_3" data-name="Arrow - Right 3" transform="translate(2.948 17.394) rotate(-90)">
    <path id="Stroke_1" data-name="Stroke 1" d="M.75,0A.75.75,0,0,0,0,.75V9.7a.75.75,0,0,0,1.5,0V.75A.75.75,0,0,0,.75,0Z" transform="translate(4.644 7.654)" fill="#fff"/>
    <path id="Stroke_3" data-name="Stroke 3" d="M5.4,0C5.112,0,4.348,0,2.6,2.336A19.272,19.272,0,0,0,.357,6.112C.044,6.866-.242,7.8.32,8.366c.228.228.648.482,2.041.644a26.581,26.581,0,0,0,2.922.144A28.868,28.868,0,0,0,8.361,9c1.466-.164,1.885-.4,2.118-.637.534-.534.276-1.4-.046-2.179a20.419,20.419,0,0,0-2.226-3.8C6.457,0,5.689,0,5.4,0ZM1.52,7.34a11.5,11.5,0,0,1,1.572-3.1A10.282,10.282,0,0,1,5.4,1.526a10,10,0,0,1,2.284,2.74A12.708,12.708,0,0,1,9.252,7.338a18.708,18.708,0,0,1-3.969.316A16.339,16.339,0,0,1,1.52,7.34Z" transform="translate(0 0)" fill="#fff"/>
  </g>
</svg>
