<svg xmlns="http://www.w3.org/2000/svg" width="18.104" height="10.787" viewBox="0 0 18.104 10.787">
  <g id="Arrow_-_Right_3" data-name="Arrow - Right 3" transform="translate(0 10.787) rotate(-90)">
    <path id="Stroke_1" data-name="Stroke 1" d="M.5,9.7a.75.75,0,0,1-.75-.75V0a.75.75,0,1,1,1.5,0V8.95A.75.75,0,0,1,.5,9.7Z" transform="translate(4.894 0.75)" fill="#fff"/>
    <path id="Stroke_3" data-name="Stroke 3" d="M4.65,8.4c-.288,0-1.052,0-2.8-2.336A19.272,19.272,0,0,1-.393,2.291C-.706,1.538-.992.6-.43.038-.2-.19.218-.444,1.611-.606A26.58,26.58,0,0,1,4.533-.75,28.867,28.867,0,0,1,7.611-.6C9.077-.435,9.5-.2,9.729.037c.534.534.276,1.4-.046,2.179a20.42,20.42,0,0,1-2.226,3.8C5.707,8.4,4.939,8.4,4.65,8.4ZM.769,1.063a11.5,11.5,0,0,0,1.572,3.1A10.283,10.283,0,0,0,4.647,6.878a10,10,0,0,0,2.284-2.74A12.708,12.708,0,0,0,8.5,1.066,18.707,18.707,0,0,0,4.533.75,16.338,16.338,0,0,0,.769,1.063Z" transform="translate(0.75 9.7)" fill="#fff"/>
  </g>
</svg>
