<svg xmlns="http://www.w3.org/2000/svg" xmlns:xlink="http://www.w3.org/1999/xlink" width="313.774" height="305.019" viewBox="0 0 313.774 305.019">
  <defs>
    <linearGradient id="linear-gradient" x1="1" x2="0.5" y2="1" gradientUnits="objectBoundingBox">
      <stop offset="0" stop-color="#5963bc"/>
      <stop offset="1" stop-color="#7d85d5"/>
    </linearGradient>
  </defs>
  <path id="Path_1627" data-name="Path 1627" d="M314.2,11.772a11.774,11.774,0,0,1-.927,4.585l-11.7,28.938-4.4,10.873L279.9,98.86,225.279,234.011,216.83,254.9l-13.915,34.4-.738,1.829L196.569,305H180.707a23.553,23.553,0,0,1-21.792-32.51l.1-.243,49.237-121.773,21.862-54.076-50,30-69.1,41.452q-1.571.848-3.015,1.813L38.791,211.181v-.063l-.353.283L33.6,214.3a23.274,23.274,0,0,1-9.612,2.057A23.555,23.555,0,0,1,.43,192.8V179.385l74.138-44.475L96.1,122l127.875-76.7L259.36,24.1l8.316-4.985L294.745,2.845,298.153.78A11.779,11.779,0,0,1,314.2,11.772Z" transform="translate(-0.43 0.021)" opacity="0.4" fill="url(#linear-gradient)"/>
</svg>
