<svg xmlns="http://www.w3.org/2000/svg" width="26.002" height="21.996" viewBox="0 0 26.002 21.996">
  <path id="Union_28" data-name="Union 28" d="M9200.786,7119.751a10,10,0,0,1-7.219-6.418,1,1,0,0,1,1.886-.666,8,8,0,0,0,13.2,2.986c.007-.007.017-.014.023-.021l3.864-3.631H9209a1,1,0,0,1,0-2h6a1,1,0,0,1,1,1v6a1,1,0,0,1-2,0v-3.629l-3.943,3.705a10.017,10.017,0,0,1-9.271,2.674ZM9191,7108a1,1,0,0,1-1-1v-6a1,1,0,0,1,2,0v3.625l3.945-3.706a10,10,0,0,1,16.486,3.745,1,1,0,1,1-1.885.667,8,8,0,0,0-13.2-2.986l-.021.021-3.871,3.636H9197a1,1,0,0,1,0,2Z" transform="translate(-9189.999 -7098)" fill="#fff"/>
</svg>
