<svg xmlns="http://www.w3.org/2000/svg" width="26" height="26" viewBox="0 0 26 26">
  <g id="Group_8609" data-name="Group 8609" transform="translate(-60 -716)">
    <path id="Stroke_2" data-name="Stroke 2" d="M9.145,1.526H0a1,1,0,0,1,0-2H9.145a1,1,0,0,1,0,2Z" transform="translate(68.427 728.474)" fill="#fff"/>
    <path id="Stroke_3" data-name="Stroke 3" d="M12-1c4.954,0,8.064.9,10.082,2.918S25,7.046,25,12s-.9,8.064-2.918,10.082S16.954,25,12,25s-8.064-.9-10.082-2.918S-1,16.954-1,12-.1,3.936,1.918,1.918,7.046-1,12-1Zm0,24c4.381,0,7.055-.719,8.668-2.332S23,16.381,23,12s-.719-7.055-2.332-8.668S16.381,1,12,1s-7.055.719-8.668,2.332S1,7.619,1,12s.719,7.055,2.332,8.668S7.619,23,12,23Z" transform="translate(61 717)" fill="#fff"/>
  </g>
</svg>
