<svg xmlns="http://www.w3.org/2000/svg" xmlns:xlink="http://www.w3.org/1999/xlink" width="60" height="70" viewBox="0 0 60 70">
  <defs>
    <clipPath id="clip-path">
      <path id="Subtraction_19" data-name="Subtraction 19" d="M27.907,25.007h0l-.071-.043L0,8.286V0H55.813V8.286Z" transform="translate(0 0)" fill="#a7adec"/>
    </clipPath>
    <linearGradient id="linear-gradient" x1="-1.997" y1="-1.923" x2="1" y2="0.98" gradientUnits="objectBoundingBox">
      <stop offset="0" stop-color="#fed5db"/>
      <stop offset="1" stop-color="#d0d4f9"/>
    </linearGradient>
    <linearGradient id="linear-gradient-2" x1="1" x2="0.5" y2="1" gradientUnits="objectBoundingBox">
      <stop offset="0" stop-color="#a7adec" stop-opacity="0"/>
      <stop offset="1" stop-color="#7d85d5"/>
    </linearGradient>
    <linearGradient id="linear-gradient-3" x1="1" x2="0.5" y2="1" gradientUnits="objectBoundingBox">
      <stop offset="0" stop-color="#a7adec"/>
      <stop offset="1" stop-color="#7d85d5"/>
    </linearGradient>
  </defs>
  <g id="Group_8888" data-name="Group 8888" transform="translate(-150 -65)">
    <g id="Group_6954" data-name="Group 6954" transform="translate(-9173 492)">
      <g id="Mask_Group_16" data-name="Mask Group 16" transform="translate(9324.9 -427)" clip-path="url(#clip-path)">
        <g id="Group_6962" data-name="Group 6962" transform="translate(5.389 0)">
          <path id="Path_1620" data-name="Path 1620" d="M1.4,0H16.1a1.4,1.4,0,0,1,1.4,1.4V32.7a1.4,1.4,0,0,1-1.4,1.4H1.4A1.4,1.4,0,0,1,0,32.7V1.4A1.4,1.4,0,0,1,1.4,0Z" transform="matrix(0.966, 0.259, -0.259, 0.966, 28.132, 0)" fill="#91d1bf"/>
          <path id="Intersection_16" data-name="Intersection 16" d="M3.707,29.737A5,5,0,0,1,.172,23.613L6.407.343Q6.454.168,6.512,0a5,5,0,0,1,4.813,5V29.088a4.978,4.978,0,0,1-.674,2.509Z" transform="translate(20.71 4.487)" opacity="0.05"/>
          <path id="Path_1621" data-name="Path 1621" d="M1.4,0H16.1a1.4,1.4,0,0,1,1.4,1.4V32.7a1.4,1.4,0,0,1-1.4,1.4H1.4A1.4,1.4,0,0,1,0,32.7V1.4A1.4,1.4,0,0,1,1.4,0Z" transform="translate(12.863 3.367)" fill="#c0eade"/>
          <path id="Intersection_17" data-name="Intersection 17" d="M5,29.592a5,5,0,0,1-5-5V.5C0,.495,0,.489,0,.483L1.163.172A5,5,0,0,1,7.286,3.707l6.235,23.27a4.976,4.976,0,0,1,.023,2.5,5.019,5.019,0,0,1-1.046.11Z" transform="translate(12.863 7.867)" opacity="0.05"/>
          <path id="Path_1622" data-name="Path 1622" d="M1.4,0H16.1a1.4,1.4,0,0,1,1.4,1.4V32.7a1.4,1.4,0,0,1-1.4,1.4H1.4A1.4,1.4,0,0,1,0,32.7V1.4A1.4,1.4,0,0,1,1.4,0Z" transform="matrix(0.966, -0.259, 0.259, 0.966, 0, 10.436)" fill="#e8faf5"/>
        </g>
      </g>
      <path id="Path_1624" data-name="Path 1624" d="M59.665,2.285V49.11a8.944,8.944,0,0,1-8.95,8.939H8.95A8.944,8.944,0,0,1,0,49.11V2.4A2.237,2.237,0,0,1,3.386.483L3.4.492l26.366,15.8.066.04C56.933,1.878,58.094,2.079,59.665,2.285Z" transform="translate(9323 -415.049)" fill="url(#linear-gradient)"/>
      <path id="Intersection_18" data-name="Intersection 18" d="M30.217,55.255a4.516,4.516,0,0,1,.079-3.224l.02-.047,9.412-23.316,4.179-10.354-9.558,5.744-13.21,7.937q-.3.162-.577.347L7.333,40.292V40.28l-.068.054-.925.555a4.442,4.442,0,0,1-1.837.394A4.506,4.506,0,0,1,0,36.774V34.2l14.172-8.516,4.116-2.473L42.732,8.53,49.5,4.471l1.59-.954L56.26.4l.652-.4L56.93,0V10.107l-.2.505-3.3,8.174L42.981,44.664l-1.615,4-2.66,6.587,0,0ZM24.031,32.973a4.5,4.5,0,1,1,4.5,4.51A4.506,4.506,0,0,1,24.031,32.973Z" transform="translate(9326.07 -412.255)" opacity="0.2" fill="url(#linear-gradient-2)"/>
      <path id="Union_26" data-name="Union 26" d="M34.28,58a4.479,4.479,0,0,1-4.144-6.182l.019-.046,9.363-23.156,4.157-10.283-9.507,5.7L21.028,31.92q-.3.161-.573.345l-13.16,7.9v-.012l-.067.054-.92.551a4.427,4.427,0,0,1-1.828.391A4.479,4.479,0,0,1,0,36.666V34.115l14.1-8.457L18.192,23.2,42.508,8.617l6.729-4.031,1.581-.948L55.965.545l.648-.393a2.242,2.242,0,0,1,2.876,2.962l-2.225,5.5-.836,2.068L53.143,18.8,42.756,44.5l-1.607,3.972L38.5,55.016l-.14.348L37.3,58ZM25.4,34.382a4.48,4.48,0,1,1,4.48,4.479A4.479,4.479,0,0,1,25.4,34.382Z" transform="translate(9323 -415)" fill="url(#linear-gradient-3)"/>
    </g>
  </g>
</svg>
