<svg xmlns="http://www.w3.org/2000/svg" width="24" height="24" viewBox="0 0 24 24">
  <g id="Group_8881" data-name="Group 8881" transform="translate(-259 -439)">
    <rect id="Rectangle_5188" data-name="Rectangle 5188" width="24" height="24" transform="translate(259 439)" fill="#fff" opacity="0"/>
    <g id="Lock" transform="translate(262.589 440.941)">
      <path id="Stroke_1" data-name="Stroke 1" d="M9.121,7.4a.75.75,0,0,1-.75-.75V4.509A3.811,3.811,0,0,0,.75,4.491V6.653A.75.75,0,0,1,0,7.4a.75.75,0,0,1-.75-.75V4.484s0-.009,0-.013A5.311,5.311,0,0,1,8.269.759,5.275,5.275,0,0,1,9.871,4.5s0,.006,0,.009V6.653A.75.75,0,0,1,9.121,7.4Z" transform="translate(3.85 0.75)" fill="#a7adec"/>
      <path id="Stroke_3" data-name="Stroke 3" d="M.5,2.971a.75.75,0,0,1-.75-.75V0a.75.75,0,0,1,1.5,0V2.221A.75.75,0,0,1,.5,2.971Z" transform="translate(7.91 12.156)" fill="#a7adec"/>
      <path id="Stroke_5" data-name="Stroke 5" d="M7.66-.75c3.165,0,5.157.475,6.46,1.542,1.349,1.1,1.951,2.794,1.951,5.479s-.6,4.376-1.951,5.48c-1.3,1.066-3.295,1.542-6.46,1.542S2.5,12.818,1.2,11.751c-1.349-1.1-1.95-2.795-1.95-5.48S-.148,1.9,1.2.792C2.5-.275,4.495-.75,7.66-.75Zm0,12.543c2.757,0,4.508-.382,5.51-1.2.969-.793,1.4-2.126,1.4-4.32s-.432-3.526-1.4-4.319c-1-.82-2.753-1.2-5.51-1.2s-4.507.382-5.509,1.2C1.182,2.745.75,4.077.75,6.271s.432,3.526,1.4,4.32C3.153,11.411,4.9,11.793,7.66,11.793Z" transform="translate(0.75 6.824)" fill="#a7adec"/>
    </g>
  </g>
</svg>
