<svg xmlns="http://www.w3.org/2000/svg" width="24" height="24" viewBox="0 0 24 24">
  <g id="Group_8884" data-name="Group 8884" transform="translate(-259 -439)">
    <rect id="Rectangle_5188" data-name="Rectangle 5188" width="24" height="24" transform="translate(259 439)" fill="#fff" opacity="0"/>
    <g id="Profile" transform="translate(264.156 441.369)">
      <path id="Stroke_1" data-name="Stroke 1" d="M6.845,8.05a16.016,16.016,0,0,1-5.051-.616C-.309,6.709-.75,5.4-.75,4.425A4.626,4.626,0,0,1,1.619.723,9.607,9.607,0,0,1,6.845-.75,9.649,9.649,0,0,1,12.06.711,4.607,4.607,0,0,1,14.439,4.4c0,.973-.439,2.286-2.533,3.018A15.826,15.826,0,0,1,6.845,8.05Zm0-7.3a8.209,8.209,0,0,0-4.4,1.227A3.193,3.193,0,0,0,.75,4.425C.75,5.835,2.8,6.55,6.845,6.55s6.095-.722,6.095-2.146a3.176,3.176,0,0,0-1.7-2.436A8.251,8.251,0,0,0,6.845.75Z" transform="translate(0 11.962)" fill="#a7adec"/>
      <path id="Stroke_3" data-name="Stroke 3" d="M4.387,9.524H4.356A5.121,5.121,0,0,1-.75,4.385,5.137,5.137,0,1,1,4.387,9.524Zm0-8.774A3.641,3.641,0,0,0,.75,4.387,3.621,3.621,0,0,0,4.359,8.024h.028a3.637,3.637,0,0,0,0-7.274Z" transform="translate(2.45 0)" fill="#a7adec"/>
    </g>
  </g>
</svg>
