<svg id="Group_8886" data-name="Group 8886" xmlns="http://www.w3.org/2000/svg" width="24" height="24" viewBox="0 0 24 24">
  <rect id="Rectangle_5188" data-name="Rectangle 5188" width="24" height="24" fill="#fff" opacity="0"/>
  <g id="Danger_Triangle" data-name="Danger Triangle" transform="translate(2.5 3)">
    <path id="Stroke_3" data-name="Stroke 3" d="M9.5,18.75A29.608,29.608,0,0,1,2.295,18.2c-1.779-.483-2.729-1.394-2.99-2.867-.378-2.139,1.264-5.4,2.921-8.305.078-.137.149-.261.209-.368A31.691,31.691,0,0,1,6.069,1.2,4.713,4.713,0,0,1,9.5-.75,4.713,4.713,0,0,1,12.931,1.2a31.691,31.691,0,0,1,3.634,5.464c.06.107.13.23.209.368,1.657,2.906,3.3,6.166,2.921,8.305-.26,1.473-1.21,2.384-2.989,2.867A29.612,29.612,0,0,1,9.5,18.75Zm0-18C8.084.75,6.362,2.738,3.742,7.4c-.061.109-.133.235-.213.375C2.686,9.25.447,13.178.782,15.073c.3,1.689,2.254,2.177,8.718,2.177s8.42-.488,8.718-2.177c.335-1.895-1.9-5.823-2.747-7.3-.08-.14-.152-.266-.213-.375C12.638,2.738,10.916.75,9.5.75Z" fill="#fff"/>
    <path id="Stroke_3-2" data-name="Stroke 3" d="M.5,4.645a.75.75,0,0,1-.75-.75V0a.75.75,0,0,1,1.5,0V3.895A.75.75,0,0,1,.5,4.645Z" transform="translate(9 5.5)" fill="#fff"/>
    <path id="Stroke_15" data-name="Stroke 15" d="M.5,1.25H.5a.75.75,0,0,1,0-1.5H.5a.75.75,0,1,1,0,1.5Z" transform="translate(9 12.395)" fill="#fff"/>
  </g>
</svg>
